<?xml version="1.0" standalone="no"?>
<!DOCTYPE svg PUBLIC "-//W3C//DTD SVG 20010904//EN"
 "http://www.w3.org/TR/2001/REC-SVG-20010904/DTD/svg10.dtd">
<svg version="1.0" xmlns="http://www.w3.org/2000/svg"
 width="300.000000pt" height="168.000000pt" viewBox="0 0 300.000000 168.000000"
 preserveAspectRatio="xMidYMid meet">
<metadata>
Created by potrace 1.10, written by Peter Selinger 2001-2011
</metadata>
<g transform="translate(0.000000,168.000000) scale(0.100000,-0.100000)"
fill="#000000" stroke="none">
<path d="M1386 1494 c-4 -15 -5 -29 -2 -31 9 -9 26 8 26 27 0 30 -17 32 -24 4z"/>
<path d="M1307 1503 c-13 -12 -7 -43 8 -43 8 0 15 6 15 13 0 18 -15 38 -23 30z"/>
<path d="M1470 1487 c-14 -29 -7 -48 11 -30 6 6 9 21 7 34 l-4 24 -14 -28z"/>
<path d="M1220 1465 c0 -16 27 -32 37 -21 7 7 -16 36 -28 36 -5 0 -9 -7 -9
-15z"/>
<path d="M1540 1461 c-6 -12 -6 -22 -1 -26 6 -3 15 3 21 14 6 12 6 22 1 26 -6
3 -15 -3 -21 -14z"/>
<path d="M1150 1431 c0 -13 29 -35 37 -28 7 8 -15 37 -28 37 -5 0 -9 -4 -9 -9z"/>
<path d="M1595 1430 c-8 -13 4 -32 16 -25 12 8 12 35 0 35 -6 0 -13 -4 -16
-10z"/>
<path d="M1651 1391 c-7 -5 -10 -14 -6 -20 5 -9 10 -9 21 0 26 22 14 38 -15
20z"/>
<path d="M1095 1370 c10 -11 22 -17 27 -14 12 8 -11 34 -30 34 -13 0 -12 -3 3
-20z"/>
<path d="M1357 1383 c-4 -3 -7 -15 -7 -25 0 -10 -5 -18 -10 -18 -7 0 -7 -6 -1
-19 8 -14 6 -23 -9 -36 -11 -10 -18 -20 -16 -23 3 -2 0 -15 -5 -29 -6 -16 -6
-30 0 -37 7 -8 4 -16 -9 -26 -10 -7 -17 -17 -14 -22 3 -4 1 -8 -5 -8 -6 0 -9
16 -7 36 1 19 -1 37 -4 39 -4 3 -5 16 -2 30 2 14 0 25 -6 25 -6 0 -8 9 -5 20
3 11 1 20 -5 20 -12 0 -24 -28 -17 -40 10 -17 -25 -65 -47 -65 -25 0 -48 46
-48 98 0 18 -5 27 -16 27 -9 0 -14 -6 -11 -12 2 -7 0 -24 -5 -38 -14 -36 -16
-79 -4 -84 7 -3 7 -5 0 -5 -7 -1 -29 15 -50 34 -50 44 -93 65 -137 65 -29 0
-45 -9 -83 -46 -38 -36 -54 -45 -75 -42 -18 3 -40 -5 -66 -24 -21 -15 -62 -44
-90 -64 -32 -22 -53 -44 -53 -55 0 -11 -15 -26 -38 -38 -20 -11 -43 -29 -50
-40 -7 -12 -18 -21 -26 -21 -22 0 -130 -140 -118 -152 8 -8 19 -2 39 21 82 95
162 171 180 171 11 0 64 -29 118 -65 54 -36 100 -63 102 -61 7 7 -60 65 -89
77 -16 6 -28 18 -28 26 0 8 -12 24 -27 37 l-27 23 73 72 c66 65 91 83 91 64 0
-4 -9 -17 -21 -29 -18 -19 -19 -27 -11 -58 6 -19 8 -45 5 -56 -3 -12 2 -29 12
-40 9 -10 14 -24 10 -29 -7 -12 34 -91 47 -91 13 0 9 29 -8 55 -9 14 -14 31
-11 39 3 7 0 19 -6 25 -7 7 -13 22 -14 34 -1 12 -5 37 -9 55 -5 26 -2 38 16
57 21 23 24 23 49 8 14 -9 42 -31 61 -49 36 -34 125 -77 144 -71 6 2 -11 15
-39 29 -28 15 -63 44 -80 67 -16 22 -39 44 -49 47 -18 6 -18 8 7 26 15 11 27
27 27 36 0 24 31 41 63 35 l26 -5 -22 -29 -21 -29 22 -23 c49 -51 98 -112 109
-136 l11 -26 1 32 c1 24 -7 38 -33 60 -19 15 -39 40 -45 56 -6 15 -17 27 -26
27 -18 0 -19 14 -5 41 16 28 30 24 82 -26 65 -62 156 -135 168 -135 17 0 11
14 -10 28 -12 7 -25 24 -30 37 -5 14 -16 25 -25 25 -8 0 -15 6 -15 14 0 29 56
10 128 -44 52 -39 70 -59 66 -70 -4 -8 -25 -68 -46 -132 -24 -71 -46 -122 -56
-127 -10 -5 -52 -14 -93 -20 -99 -14 -131 -26 -127 -49 4 -22 80 -59 138 -67
25 -4 54 -9 64 -12 20 -5 20 -6 0 -20 -18 -14 -18 -15 0 -28 10 -7 15 -18 12
-23 -17 -28 41 -41 209 -46 152 -4 189 8 50 18 -204 14 -228 16 -232 20 -2 2
-4 22 -5 45 0 23 -4 44 -9 47 -5 3 -37 10 -71 15 -34 6 -74 18 -90 27 -29 17
-33 37 -7 38 8 0 30 5 49 11 19 7 51 12 71 11 62 0 74 13 108 119 17 54 31
102 31 106 0 4 10 21 22 37 21 29 24 30 111 30 81 0 88 -2 82 -17 -20 -51 -26
-87 -27 -182 -2 -96 -3 -104 -25 -118 -27 -18 -30 -38 -5 -48 9 -4 68 -11 130
-15 63 -5 116 -11 120 -14 3 -3 0 -16 -5 -29 -25 -55 13 -62 325 -66 129 -1
192 1 192 8 0 7 -56 11 -162 11 -161 1 -312 7 -335 15 -9 3 -8 12 5 35 16 30
16 32 -2 45 -14 11 -47 15 -112 15 -50 0 -106 3 -124 7 l-33 6 23 17 c20 15
22 24 21 106 -2 94 25 226 54 271 14 20 86 74 93 68 1 -1 -6 -27 -17 -59 -10
-31 -15 -58 -11 -61 11 -7 41 30 33 40 -5 4 -2 5 5 1 15 -9 32 32 32 77 0 38
18 67 60 97 l29 21 11 -21 c8 -15 7 -27 -6 -51 -11 -23 -13 -34 -5 -42 19 -19
12 -37 -24 -58 -36 -22 -48 -43 -17 -32 9 3 28 14 42 24 25 17 29 38 30 151 1
33 4 37 31 43 26 6 42 0 100 -40 66 -45 68 -47 57 -73 -7 -15 -25 -42 -42 -59
-40 -43 -17 -42 41 2 48 37 71 43 90 24 9 -9 5 -22 -14 -53 -14 -22 -30 -42
-34 -44 -5 -2 -9 -10 -9 -17 0 -8 -10 -23 -22 -35 -25 -23 -24 -26 17 -36 27
-7 29 -6 17 9 -12 14 -10 19 8 39 12 13 31 42 41 66 10 23 24 42 32 42 7 0 26
-14 43 -31 16 -17 44 -37 62 -46 38 -18 41 -29 7 -37 -14 -4 -25 -11 -25 -16
0 -5 -20 -41 -45 -80 -42 -65 -47 -70 -81 -70 -48 0 -40 -24 10 -28 42 -4 59
7 91 58 12 20 40 55 62 78 l40 42 1 -51 c0 -29 -5 -67 -13 -84 -12 -31 -12
-33 11 -44 29 -13 54 -14 54 -3 0 4 -10 12 -22 17 -14 6 -21 17 -18 25 2 8 5
42 5 75 0 57 1 60 27 63 23 3 28 -2 42 -46 15 -44 22 -52 59 -66 23 -9 69 -36
102 -61 56 -42 94 -54 97 -30 1 6 -32 28 -73 50 -48 26 -99 65 -144 111 -82
83 -109 101 -131 83 -8 -6 -14 -7 -14 -2 0 6 -44 44 -97 84 -53 41 -104 80
-113 87 -8 8 -49 39 -90 69 -70 53 -78 56 -133 57 -45 1 -61 -3 -68 -16 -5 -9
-23 -19 -39 -23 -22 -5 -34 -16 -45 -42 -15 -36 -39 -41 -41 -7 -1 10 -3 24
-4 29 -1 6 -1 22 0 38 1 15 -3 27 -9 27 -6 0 -11 -13 -11 -28 0 -16 -3 -32 -7
-36 -8 -8 -13 -27 -20 -78 -4 -26 -9 -35 -19 -31 -8 3 -11 9 -8 14 3 5 2 15
-3 22 -7 11 -10 43 -12 125 -1 49 -18 38 -24 -15 -10 -80 -33 -153 -49 -153
-6 0 -8 7 -4 15 3 8 1 15 -5 15 -5 0 -7 11 -3 25 4 14 2 25 -4 25 -6 0 -9 8
-7 18 3 22 -13 54 -25 47 -5 -3 -7 -25 -5 -49 3 -33 1 -46 -10 -50 -8 -3 -15
-15 -15 -26 0 -23 -6 -25 -24 -7 -8 8 -12 32 -11 65 2 29 -1 52 -6 52 -6 0 -7
21 -4 50 5 46 -1 61 -18 43z m199 -258 c-15 -22 -22 -24 -81 -22 -64 2 -85 13
-85 42 0 6 4 5 8 -2 9 -14 32 1 50 32 10 19 12 17 27 -18 19 -46 34 -44 59 8
l20 39 9 -27 c7 -21 5 -34 -7 -52z m-189 43 c21 -27 21 -55 0 -67 -17 -11 -23
-9 -43 11 -22 22 -23 25 -8 46 17 25 37 28 51 10z m143 -28 c0 -5 -4 -10 -10
-10 -5 0 -10 5 -10 10 0 6 5 10 10 10 6 0 10 -4 10 -10z m10 -50 c0 -5 -5 -10
-11 -10 -5 0 -7 5 -4 10 3 6 8 10 11 10 2 0 4 -4 4 -10z m-57 -7 c-18 -2 -48
-2 -65 0 -18 2 -4 4 32 4 36 0 50 -2 33 -4z"/>
<path d="M1685 1341 c-3 -5 -1 -12 5 -16 12 -7 30 2 30 16 0 12 -27 12 -35 0z"/>
<path d="M1020 1315 c0 -2 9 -9 20 -15 24 -13 50 -2 29 11 -15 9 -49 12 -49 4z"/>
<path d="M1760 1061 c0 -6 10 -11 23 -11 13 0 26 -9 32 -22 14 -32 39 -37 30
-7 -10 32 -14 36 -52 44 -21 4 -33 3 -33 -4z"/>
<path d="M1230 1049 c1 -15 50 -56 50 -41 0 5 -11 19 -25 32 -17 16 -25 19
-25 9z"/>
<path d="M1883 1005 c-43 -43 -50 -55 -35 -55 12 0 92 77 92 89 0 19 -14 11
-57 -34z"/>
<path d="M1610 1015 c-13 -14 -20 -28 -17 -32 7 -7 47 34 47 49 0 13 -5 10
-30 -17z"/>
<path d="M1481 978 c-15 -78 -23 -198 -13 -198 8 0 35 240 27 248 -2 2 -8 -20
-14 -50z"/>
<path d="M1346 1003 c-21 -68 -46 -184 -45 -213 1 -19 3 -26 6 -15 2 11 15 69
29 128 14 60 23 111 21 114 -3 2 -8 -4 -11 -14z"/>
<path d="M1360 932 c-23 -75 -21 -114 4 -93 11 9 15 8 20 -5 3 -9 4 -20 1 -24
-9 -14 16 -23 28 -11 8 8 8 11 0 11 -7 0 -13 12 -15 28 -2 19 -8 27 -20 26
-22 -2 -22 -1 -2 65 8 29 13 58 11 64 -2 7 -14 -21 -27 -61z"/>
<path d="M950 982 c0 -15 24 -32 46 -32 13 0 25 -4 29 -9 8 -14 67 -42 73 -36
8 8 -51 66 -63 61 -5 -2 -25 3 -44 10 -39 16 -41 17 -41 6z"/>
<path d="M1400 915 c0 -13 6 -28 14 -32 8 -4 16 -26 19 -48 l4 -40 1 46 c1 30
-3 51 -12 59 -8 6 -12 18 -9 26 3 8 0 14 -6 14 -6 0 -11 -11 -11 -25z"/>
<path d="M1843 918 c-6 -7 -13 -20 -16 -30 -3 -9 -19 -19 -36 -23 -48 -10 -47
-25 2 -25 50 0 62 10 69 58 5 33 -3 41 -19 20z"/>
<path d="M2016 875 c-10 -8 -24 -16 -30 -18 -14 -5 22 -47 41 -47 17 0 17 27
1 33 -10 3 -10 8 1 21 18 22 11 28 -13 11z"/>
<path d="M1561 772 c-14 -10 23 -16 169 -28 41 -3 80 -10 86 -15 7 -5 68 -7
142 -4 83 4 145 2 172 -5 55 -15 114 -19 363 -24 168 -4 207 -3 207 8 0 11
-52 15 -257 19 -142 3 -274 10 -293 15 -62 18 -228 23 -242 8 -12 -13 -43 -11
-64 6 -20 15 -263 33 -283 20z"/>
<path d="M298 758 c10 -10 73 -14 270 -18 272 -5 387 -1 342 13 -14 4 -160 10
-325 13 -251 5 -298 4 -287 -8z"/>
<path d="M1407 749 c-3 -13 -1 -19 6 -16 15 5 22 37 9 37 -5 0 -12 -9 -15 -21z"/>
<path d="M1151 729 c-18 -6 -30 -13 -27 -16 3 -4 39 -11 78 -18 52 -8 72 -15
70 -24 -2 -8 0 -21 3 -30 5 -12 9 -10 19 9 15 29 4 50 -28 51 -12 0 -15 3 -8
6 16 6 102 -16 102 -26 0 -4 -5 -12 -11 -18 -9 -9 -3 -13 22 -17 82 -12 148
-15 154 -7 3 6 -30 13 -75 17 -73 6 -80 8 -75 25 10 30 -36 42 -135 35 l-85
-5 50 13 c47 13 48 14 15 14 -19 0 -50 -4 -69 -9z"/>
<path d="M533 694 c-30 -13 -9 -22 45 -21 31 1 100 0 152 -2 132 -4 160 -3
160 10 0 5 -21 10 -47 10 -27 0 -104 2 -173 4 -69 2 -131 2 -137 -1z"/>
<path d="M2003 677 c-24 -6 -43 -13 -43 -16 0 -3 61 -7 136 -9 92 -1 133 1
129 8 -4 6 -14 10 -23 8 -10 -1 -22 1 -29 5 -20 13 -127 16 -170 4z"/>
<path d="M1557 654 c-13 -13 -7 -24 12 -24 21 0 37 17 26 28 -3 3 -10 0 -14
-7 -6 -10 -10 -10 -12 -2 -3 7 -8 9 -12 5z"/>
<path d="M933 628 c-29 -5 -53 -14 -53 -19 0 -5 37 -9 83 -9 45 0 100 -3 122
-6 74 -12 6 22 -80 39 -11 3 -44 0 -72 -5z"/>
<path d="M1350 601 c0 -7 26 -11 67 -11 81 0 78 9 -6 16 -40 4 -61 2 -61 -5z"/>
<path d="M1585 590 c-4 -6 5 -10 20 -10 15 0 33 -7 41 -15 17 -17 60 -20 69
-5 3 6 -3 10 -14 10 -11 0 -26 7 -35 15 -16 17 -72 20 -81 5z"/>
<path d="M1813 548 c-2 -5 15 -8 39 -8 24 0 73 -3 111 -7 45 -4 67 -2 67 5 0
12 -209 22 -217 10z"/>
<path d="M2270 550 c0 -17 30 -24 43 -10 10 10 8 12 -5 7 -10 -4 -18 -2 -18 3
0 6 -4 10 -10 10 -5 0 -10 -5 -10 -10z"/>
<path d="M1561 516 c8 -8 221 -24 238 -18 25 10 -51 21 -153 21 -49 1 -87 -1
-85 -3z"/>
<path d="M1935 510 c-39 -7 -38 -7 20 -10 58 -2 136 -16 105 -19 -12 -1 -11
-4 2 -18 21 -20 169 -31 208 -15 20 9 9 11 -58 11 -87 1 -122 11 -122 36 0 11
-11 15 -37 15 -21 0 -47 2 -58 4 -11 2 -38 0 -60 -4z"/>
<path d="M2130 501 c0 -5 30 -9 68 -10 47 -1 62 2 52 9 -19 12 -120 13 -120 1z"/>
<path d="M1090 270 c0 -87 4 -140 10 -140 6 0 10 20 10 45 0 58 16 58 66 0 21
-25 45 -45 53 -45 9 0 -6 22 -37 53 l-53 53 51 48 c28 27 49 51 45 54 -3 3
-32 -21 -65 -53 l-60 -59 0 92 c0 55 -4 92 -10 92 -6 0 -10 -53 -10 -140z"/>
<path d="M550 266 l0 -136 58 0 c118 0 182 90 138 195 -20 47 -55 66 -131 73
l-65 5 0 -137z m134 103 c28 -13 56 -64 56 -103 0 -38 -25 -93 -48 -105 -12
-6 -46 -11 -76 -11 l-56 0 0 115 0 115 50 0 c27 0 60 -5 74 -11z"/>
<path d="M816 381 c-4 -5 -2 -12 3 -15 5 -4 12 -2 15 3 4 5 2 12 -3 15 -5 4
-12 2 -15 -3z"/>
<path d="M2420 356 c0 -15 -7 -26 -17 -29 -17 -4 -17 -5 -1 -6 15 -1 18 -15
20 -93 l3 -93 30 -2 c27 -2 28 -2 8 7 -21 9 -23 16 -23 94 0 80 1 85 23 89
l22 4 -22 2 c-16 1 -23 7 -23 20 0 11 -4 23 -10 26 -6 3 -10 -5 -10 -19z"/>
<path d="M824 235 c0 -60 1 -84 3 -52 2 32 2 81 0 110 -2 29 -3 3 -3 -58z"/>
<path d="M922 324 c-45 -31 -22 -80 50 -103 54 -18 62 -65 13 -77 -35 -9 -65
5 -77 34 -6 16 -12 22 -15 14 -3 -7 2 -24 11 -37 13 -20 25 -25 59 -25 50 0
67 13 67 51 0 29 -31 59 -61 59 -9 0 -27 8 -39 18 -19 16 -21 22 -11 40 17 32
64 29 90 -5 16 -22 20 -24 21 -10 0 24 -36 57 -63 57 -12 0 -33 -7 -45 -16z"/>
<path d="M1309 311 c-39 -40 -42 -114 -4 -155 49 -53 147 -24 161 49 19 105
-86 177 -157 106z m121 -18 c43 -55 8 -153 -55 -153 -30 0 -71 34 -79 66 -8
32 10 91 32 104 34 19 79 12 102 -17z"/>
<path d="M1568 329 c-10 -5 -18 -15 -18 -21 0 -9 3 -9 12 0 7 7 26 12 43 12
47 0 55 -15 55 -107 0 -49 4 -83 10 -83 6 0 10 33 10 80 0 73 -3 83 -25 105
-25 26 -58 31 -87 14z"/>
<path d="M1786 319 c-19 -15 -24 -16 -20 -5 3 9 1 16 -5 16 -7 0 -11 -34 -11
-100 0 -60 4 -100 10 -100 6 0 10 33 10 78 0 90 14 112 68 112 42 0 52 -22 52
-114 0 -49 4 -76 11 -76 7 0 10 28 8 86 -4 76 -7 88 -28 105 -30 25 -62 24
-95 -2z"/>
<path d="M2009 325 c-83 -45 -51 -195 41 -195 39 0 80 29 80 56 0 11 -9 6 -29
-15 -16 -17 -39 -31 -50 -31 -28 0 -71 43 -71 70 0 18 6 20 80 20 88 0 94 5
65 60 -26 49 -67 62 -116 35z m95 -27 c33 -47 23 -58 -54 -58 -78 0 -85 8 -49
54 27 34 81 36 103 4z"/>
<path d="M2229 325 c-54 -29 -63 -123 -18 -171 42 -44 139 -21 139 32 0 11 -9
7 -29 -15 -35 -37 -64 -39 -96 -6 -32 31 -34 91 -4 129 29 37 80 36 107 -1 11
-16 24 -25 27 -21 12 12 -52 68 -77 68 -13 -1 -35 -7 -49 -15z"/>
<path d="M1520 230 c0 -55 4 -100 9 -100 5 0 11 37 13 83 3 89 0 117 -13 117
-5 0 -9 -45 -9 -100z"/>
</g>
</svg>
